PathFileType	4	(X/Y/Z)	/Users/niels/Desktop/University/Third Semester/Perception and Action/Exam/Gymnastics Motion Tracking/Code for Gym Tracking/Analyzed Data/Webcam_Backflip/id1_5_trajectory_Sports2D/id1_5_trajectory_Sports2D_px_person00.trc
DataRate	CameraRate	NumFrames	NumMarkers	Units	OrigDataRate	OrigDataStartFrame	OrigNumFrames
29.71698113207547	29.71698113207547	11	22	m	29.71698113207547	92	106
Frame#	Time	Hip			RHip			RKnee			RAnkle			RBigToe			RSmallToe			RHeel			LHip			LKnee			LAnkle			LBigToe			LSmallToe			LHeel			Neck			Head			Nose			RShoulder			RElbow			RWrist			LShoulder			LElbow			LWrist		
		X1	Y1	Z1	X2	Y2	Z2	X3	Y3	Z3	X4	Y4	Z4	X5	Y5	Z5	X6	Y6	Z6	X7	Y7	Z7	X8	Y8	Z8	X9	Y9	Z9	X10	Y10	Z10	X11	Y11	Z11	X12	Y12	Z12	X13	Y13	Z13	X14	Y14	Z14	X15	Y15	Z15	X16	Y16	Z16	X17	Y17	Z17	X18	Y18	Z18	X19	Y19	Z19	X20	Y20	Z20	X21	Y21	Z21	X22	Y22	Z22
92	3.0958730158730154	0.8174985968300392	-0.4927204675929933	0.0	0.8070093103836636	-0.4913875718931925	0.0	0.8464121345577904	-0.603021938743794	0.0	0.8437494174831307	-0.7329864543237449	0.0	0.89769943066221	-0.7508411291741177	0.0	0.8895720312204312	-0.7540317857212715	0.0	0.8358799713895975	-0.7541436455557808	0.0	0.8351249088404727	-0.4922518367904653	0.0	0.852543028412518	-0.6021693970628693	0.0	0.8472094568093402	-0.7277724832165603	0.0	0.8987409735994735	-0.7451243125216792	0.0	0.896064292896638	-0.7425307601146097	0.0	0.8353003685554786	-0.7492507063243394	0.0	0.8493394920569689	-0.32154694573571313	0.0	0.8852260019176981	-0.24448719168211105	0.0	0.8922238885875521	-0.2966010060516434	0.0	0.8218996318801858	-0.32639587150144894	0.0	0.821019769356533	-0.36653922804359235	0.0	0.8627295084561941	-0.37850196793502655	0.0	0.86749241139646	-0.33915548539695106	0.0	0.9232500192528473	-0.3667350465050339	0.0	0.9925932535818606	-0.3633969845476288	0.0
93	3.129523809523809	0.8117446285861292	-0.46692634618203654	0.0	0.7998097543389371	-0.465291844224613	0.0	0.8348300209687555	-0.577847236614916	0.0	0.8349266378341916	-0.7076588612930753	0.0	0.8886134062214709	-0.7267955793354752	0.0	0.8797720741422258	-0.7295843400405666	0.0	0.8272359376306814	-0.7279744383842406	0.0	0.8298757606970102	-0.4667907555530867	0.0	0.843690367279592	-0.5774209843799362	0.0	0.8402947636338446	-0.7025261861680469	0.0	0.88978603380284	-0.7215073906312669	0.0	0.8879858529768193	-0.7185668326259975	0.0	0.8289224928405075	-0.7237043066650535	0.0	0.8462573059410883	-0.29546986555760485	0.0	0.8817221855361109	-0.2175145912644543	0.0	0.8892819469643936	-0.2703942359017252	0.0	0.8186511019843463	-0.29988993919238816	0.0	0.8117547169790388	-0.3408252373555847	0.0	0.8468661293216431	-0.3581863542130519	0.0	0.8648854326324356	-0.31535898014227165	0.0	0.9169150467171852	-0.347012876589793	0.0	0.9855800921583926	-0.34473690034118776	0.0
94	3.163174603174603	0.8067188830809839	-0.44563271327468007	0.0	0.7934418665578332	-0.4435056282623637	0.0	0.8237284345185981	-0.5571598347841504	0.0	0.8237045630854021	-0.6865998614252606	0.0	0.8767743821308278	-0.7081602372703842	0.0	0.8666393557922737	-0.7105592535829557	0.0	0.815828395194009	-0.706015966767084	0.0	0.8249371563338929	-0.44564980842477	0.0	0.835428840125024	-0.5572405584300723	0.0	0.8315526649828637	-0.6817636722648273	0.0	0.8786224016716453	-0.7030315334017377	0.0	0.8775456849391662	-0.6995865835936494	0.0	0.8205288779976055	-0.7023336202034544	0.0	0.8429015036676066	-0.2734688606630982	0.0	0.8778463483201091	-0.1948256485145064	0.0	0.8860201001227492	-0.2478029473539256	0.0	0.8153484775023101	-0.27783140747894847	0.0	0.8028137744184329	-0.3192993034873541	0.0	0.8314979695975551	-0.34112290552121266	0.0	0.8614937298936235	-0.2957624593696463	0.0	0.9096593892697121	-0.3308543814570902	0.0	0.9777057158494564	-0.32887751313400393	0.0
95	3.1968253968253966	0.8023560364572772	-0.42876922379400345	0.0	0.7879853539110324	-0.4260071170701182	0.0	0.8134272910122529	-0.540815206267375	0.0	0.8106971499259539	-0.6696796622039977	0.0	0.8627601399586253	-0.6945198472626877	0.0	0.8509845652049274	-0.6965933040642133	0.0	0.8022789519955373	-0.6883103671679718	0.0	0.8202917994838825	-0.42875477087483377	0.0	0.8277065733601178	-0.541442663774419	0.0	0.8211782216640381	-0.6653978777012816	0.0	0.8657334952756741	-0.6893347964533542	0.0	0.8652814317212348	-0.6852235550726954	0.0	0.8103867050536113	-0.6850601953791701	0.0	0.8391574348581383	-0.2555064921065261	0.0	0.8736861763353119	-0.17616734819182833	0.0	0.8824339215440343	-0.22890266161921058	0.0	0.8119162552712562	-0.2602043537493411	0.0	0.7939638271077671	-0.3023570181171767	0.0	0.8168675494188123	-0.3284927920994054	0.0	0.8572449007741735	-0.2800043856934026	0.0	0.9014887018031744	-0.3182577057361627	0.0	0.9691263089310379	-0.3165920579399708	0.0
96	3.23047619047619	0.7984833189136076	-0.41618824566774737	0.0	0.7833764750210199	-0.41276863679856124	0.0	0.80401407196101	-0.5286553337682559	0.0	0.7966274227306279	-0.6567655257319395	0.0	0.8472385820144012	-0.6852520942622151	0.0	0.8337269423252425	-0.6870759471989764	0.0	0.7873484647034237	-0.6747986207879191	0.0	0.8158787842359558	-0.4160407085753759	0.0	0.8202600664454431	-0.5298292915849991	0.0	0.8095459876795674	-0.6531859836875891	0.0	0.851717041560605	-0.6798631476598198	0.0	0.8517840352328638	-0.6750024429066834	0.0	0.7989136562537703	-0.6717744756313103	0.0	0.8349114186677759	-0.24168387839103628	0.0	0.8692942920358327	-0.16150420563526804	0.0	0.878473242453921	-0.21405229271590182	0.0	0.8083321536572199	-0.24693905876410316	0.0	0.7852289062366525	-0.2900594904855934	0.0	0.8032471701991171	-0.3209064399793709	0.0	0.8520928248233568	-0.2678985874698319	0.0	0.8926184080010239	-0.3092052182880926	0.0	0.9600709237795659	-0.3085028511601496	0.0
97	3.2641269841269835	0.7949095003337009	-0.4077484293875463	0.0	0.7794532129752297	-0.4037562497372756	0.0	0.7953535418814431	-0.5205643051586706	0.0	0.7821292428365575	-0.6477614691947573	0.0	0.830768595166028	-0.6798178714057769	0.0	0.8156625300825341	-0.6814231016494868	0.0	0.7718098640412874	-0.6653700297927301	0.0	0.8116555728356168	-0.40746055313991064	0.0	0.8128146693536281	-0.5222268720395099	0.0	0.7971731902214662	-0.6448088575707068	0.0	0.837098590375272	-0.6741066138964119	0.0	0.8376054021903396	-0.6685369189946356	0.0	0.7866848617009737	-0.6623867369367207	0.0	0.8301506056468169	-0.2321693249237668	0.0	0.8646930705296181	-0.1510126124338214	0.0	0.8741256217444698	-0.20367717109436723	0.0	0.8045235716260857	-0.23800238241840524	0.0	0.7766970231618451	-0.2824028054621322	0.0	0.7908297081296009	-0.31853815797082297	0.0	0.8461714044138737	-0.25939649880879706	0.0	0.8833707001315099	-0.3038066936850429	0.0	0.9508176273919398	-0.30511258685292386	0.0
98	3.2977777777777773	0.7914656851251212	-0.4033775654013559	0.0	0.7759799950203937	-0.39895265995421997	0.0	0.7871738343483974	-0.5164793944032781	0.0	0.767680747508926	-0.6426054957491524	0.0	0.8138327180626711	-0.6779059589266436	0.0	0.7974345623910706	-0.6792510345216913	0.0	0.7563390440285386	-0.6598867518601026	0.0	0.8075863351157231	-0.4029900130486347	0.0	0.8052188808001262	-0.5185169939362411	0.0	0.7845812746134478	-0.6400058462702753	0.0	0.8223235699103848	-0.6717413236371623	0.0	0.8232495463390452	-0.6655909851177221	0.0	0.774283384605542	-0.6568481571536094	0.0	0.8250060144641217	-0.22702012591147744	0.0	0.8598934102770744	-0.14488520650723669	0.0	0.8694348176726849	-0.19796072800380765	0.0	0.8003253442594401	-0.2333787552817401	0.0	0.7684342749289387	-0.2795008041767895	0.0	0.7797120618849527	-0.3213076356039911	0.0	0.8398136056129394	-0.25448716688906703	0.0	0.8739702949507295	-0.3022833619667154	0.0	0.941507021384141	-0.30677139284714006	0.0
99	3.331428571428571	0.7880046041769265	-0.40309946881510206	0.0	0.7726753884627373	-0.39840528597300884	0.0	0.7792055283055053	-0.5163764052889065	0.0	0.7536554845944192	-0.6412904199329515	0.0	0.7969802748588545	-0.6794502102947944	0.0	0.7796237522592793	-0.6804388421974726	0.0	0.7414504639602751	-0.6582517638977455	0.0	0.8035975458576661	-0.40263847208498355	0.0	0.7974717226600467	-0.518634317784782	0.0	0.772177326011797	-0.6387069274336918	0.0	0.8078414079921801	-0.6727218591060685	0.0	0.8091746212399593	-0.6661202780633674	0.0	0.7621308713526923	-0.6551848030440058	0.0	0.8196964766721169	-0.2261331640566877	0.0	0.8549587841461654	-0.14321996684133853	0.0	0.8645008969854567	-0.1967817774144894	0.0	0.7955588312263164	-0.2330382828247338	0.0	0.760529902427686	-0.2815459093846218	0.0	0.7698958203359103	-0.3290191784167671	0.0	0.8333863672216286	-0.25320255083528026	0.0	0.8644607821148325	-0.30486183054302524	0.0	0.9320228021740338	-0.31367612734923006	0.0
100	3.3650793650793647	0.7844007489782087	-0.4069741872808272	0.0	0.7692958863068574	-0.4021946261707062	0.0	0.7713087460929433	-0.5202145228235541	0.0	0.7403749197947248	-0.643863279871334	0.0	0.7808235125057259	-0.6845374043329142	0.0	0.762771450858025	-0.685070876479038	0.0	0.7275093609289133	-0.6604491057705766	0.0	0.799579457733775	-0.40644456065986245	0.0	0.7896422285909225	-0.5225470541755389	0.0	0.7602502841383648	-0.6410655816525497	0.0	0.7941002182017788	-0.6772376614992949	0.0	0.795770867594888	-0.6702828513087047	0.0	0.7504672422622458	-0.6575320500579935	0.0	0.8144248791835267	-0.22935663135276294	0.0	0.8500485820808147	-0.1459908349717728	0.0	0.8594792938363759	-0.1998751731531069	0.0	0.790184701434831	-0.2369608418668048	0.0	0.7531348968983672	-0.28857439928356393	0.0	0.7612587886497452	-0.34141576558948034	0.0	0.8271516048473668	-0.25564927335609655	0.0	0.85483483152567	-0.31161282811069746	0.0	0.9220515873507434	-0.3258708925152845	0.0
101	3.3987301587301584	0.7805453185692989	-0.41497581126964617	0.0	0.7656907632135895	-0.4102897388984583	0.0	0.7634974471638337	-0.5278828791310434	0.0	0.728092532489408	-0.6503565041170144	0.0	0.7659031366647635	-0.6932536157974111	0.0	0.747344042888004	-0.693273371818699	0.0	0.7147420544502373	-0.6665020761585636	0.0	0.7954344294825968	-0.4144043403268697	0.0	0.781785077678792	-0.5302635233181506	0.0	0.7490324691835123	-0.647373262964731	0.0	0.781482094772867	-0.6855225223913858	0.0	0.783344163560265	-0.678334963119813	0.0	0.7394227651416467	-0.6641154273026039	0.0	0.8093323163888907	-0.23659488022430988	0.0	0.8454101172257037	-0.15301446782017206	0.0	0.8545555010542782	-0.20694826782144446	0.0	0.7844083233957887	-0.24511030275703138	0.0	0.7464448879414608	-0.30027766146659757	0.0	0.7536062115370276	-0.3581711633640395	0.0	0.8212942482922602	-0.26197954883993024	0.0	0.8451943136922425	-0.3223856146292671	0.0	0.9112318372192141	-0.3432065089262349	0.0
102	3.432380952380952	0.7763190150198592	-0.42686470974311375	0.0	0.7617737557227936	-0.42239148552286226	0.0	0.7558463921627764	-0.5391558435757504	0.0	0.716936175871169	-0.6606782402287334	0.0	0.7525284775730473	-0.7055629189835292	0.0	0.7336581229342941	-0.7050569458954751	0.0	0.7032221050125231	-0.6763600737861611	0.0	0.7911064942328686	-0.4263142576306598	0.0	0.7739163758439888	-0.5417663380923317	0.0	0.7386971973485077	-0.6578850916568952	0.0	0.7702617419795409	-0.6976593259445591	0.0	0.7720990341476126	-0.6904479570854398	0.0	0.729058663994901	-0.6751270654042802	0.0	0.8045040194179073	-0.24773336601475268	0.0	0.8413058807945712	-0.16390043994847722	0.0	0.8499111078843101	-0.21764159559506832	0.0	0.7785846090043057	-0.2572990068962775	0.0	0.7406483355694584	-0.31600655990380316	0.0	0.7467924427783487	-0.3788550625726453	0.0	0.815941597608019	-0.2722613357826655	0.0	0.8357336497482983	-0.3368987329493315	0.0	0.8993181203810695	-0.3653044922830945	0.0
